<svg width="193" height="73" viewBox="0 0 193 73" fill="none" xmlns="http://www.w3.org/2000/svg">
<path d="M97.9616 14.513C99.5483 15.2192 100.747 16.2432 101.593 17.5498C102.439 18.8563 102.863 20.41 102.863 22.2109C102.863 23.9765 102.439 25.5302 101.593 26.8367C100.747 28.1433 99.513 29.1673 97.9616 29.8735C96.375 30.5798 94.5415 30.9329 92.3908 30.9329H88.2655V37.1124H81.5664V13.4536H92.3555C94.5415 13.4536 96.4102 13.8067 97.9616 14.513ZM95.1057 24.7533C95.8108 24.153 96.1634 23.3056 96.1634 22.2109C96.1634 21.1162 95.8108 20.2335 95.1057 19.6332C94.4005 19.0329 93.378 18.7151 92.0029 18.7151H88.3008V25.6361H92.0029C93.378 25.6714 94.4005 25.3536 95.1057 24.7533Z" fill="#1A1A1A"/>
<path d="M111.677 35.9826C109.703 34.9232 108.116 33.4755 106.988 31.6039C105.86 29.7324 105.295 27.6137 105.295 25.2831C105.295 22.9526 105.86 20.8339 106.988 18.9624C108.116 17.0908 109.703 15.6431 111.677 14.5837C113.652 13.5244 115.908 12.9947 118.412 12.9947C120.915 12.9947 123.136 13.5244 125.146 14.5837C127.12 15.6431 128.707 17.0908 129.835 18.9624C130.964 20.8339 131.528 22.9526 131.528 25.2831C131.528 27.6137 130.964 29.7324 129.835 31.6039C128.707 33.4755 127.12 34.9232 125.146 35.9826C123.171 37.0419 120.915 37.5716 118.412 37.5716C115.908 37.5716 113.652 37.0419 111.677 35.9826ZM121.62 31.2155C122.572 30.6505 123.348 29.8737 123.912 28.8496C124.476 27.8256 124.758 26.6603 124.758 25.3185C124.758 23.9766 124.476 22.8113 123.912 21.7873C123.348 20.7633 122.572 19.9511 121.62 19.4214C120.668 18.8564 119.575 18.5739 118.376 18.5739C117.178 18.5739 116.12 18.8564 115.133 19.4214C114.181 19.9864 113.405 20.7633 112.841 21.7873C112.277 22.8113 111.995 23.9766 111.995 25.3185C111.995 26.6603 112.277 27.8256 112.841 28.8496C113.405 29.8737 114.181 30.6858 115.133 31.2155C116.085 31.7805 117.178 32.063 118.376 32.063C119.575 32.0277 120.668 31.7805 121.62 31.2155Z" fill="#1A1A1A"/>
<path d="M140.13 36.0178C138.156 34.9585 136.605 33.5107 135.476 31.6392C134.348 29.7676 133.784 27.6489 133.784 25.2831C133.784 22.9172 134.348 20.7985 135.476 18.927C136.605 17.0554 138.156 15.6077 140.13 14.5483C142.105 13.489 144.326 12.9593 146.794 12.9593C148.945 12.9593 150.884 13.3477 152.647 14.1246C154.375 14.9014 155.821 15.9961 156.984 17.4439L152.718 21.2928C151.202 19.4566 149.333 18.5385 147.147 18.5385C145.878 18.5385 144.714 18.821 143.727 19.386C142.74 19.951 141.964 20.7279 141.4 21.7519C140.836 22.7759 140.589 23.9412 140.589 25.2831C140.589 26.6249 140.871 27.7902 141.4 28.8142C141.964 29.8383 142.74 30.6504 143.727 31.1801C144.714 31.7451 145.878 32.0276 147.147 32.0276C149.333 32.0276 151.202 31.1095 152.718 29.2733L156.984 33.1222C155.821 34.57 154.41 35.6647 152.647 36.4415C150.92 37.2184 148.98 37.6068 146.794 37.6068C144.326 37.5715 142.105 37.0772 140.13 36.0178Z" fill="#1A1A1A"/>
<path d="M93.2021 55.2274H85.3747L83.7528 58.8998H81.6021L88.2659 44.1395H90.3462L97.0453 58.8998H94.824L93.2021 55.2274ZM92.4969 53.5324L89.3237 46.2935L86.1504 53.5324H92.4969Z" fill="#1A1A1A"/>
<path d="M101.628 58.0876C100.43 57.452 99.513 56.5338 98.8431 55.4039C98.1732 54.2739 97.8206 52.9674 97.8206 51.5549C97.8206 50.1071 98.1732 48.8359 98.8431 47.7059C99.513 46.576 100.465 45.6578 101.628 45.0222C102.827 44.3866 104.167 44.0335 105.613 44.0335C106.776 44.0335 107.799 44.2101 108.751 44.5985C109.703 44.9869 110.514 45.5519 111.184 46.3288L109.808 47.6706C108.715 46.5053 107.305 45.905 105.648 45.905C104.555 45.905 103.568 46.1522 102.686 46.6466C101.805 47.1409 101.1 47.8119 100.606 48.6946C100.112 49.5421 99.8656 50.5309 99.8656 51.5902C99.8656 52.6496 100.112 53.6383 100.606 54.4858C101.1 55.3333 101.805 56.0395 102.686 56.5338C103.568 57.0282 104.555 57.2754 105.648 57.2754C107.305 57.2754 108.68 56.6751 109.808 55.5098L111.184 56.8517C110.514 57.5932 109.703 58.1935 108.751 58.5819C107.799 58.9704 106.741 59.1822 105.577 59.1822C104.132 59.0763 102.792 58.7585 101.628 58.0876Z" fill="#1A1A1A"/>
<path d="M123.242 55.2274H115.415L113.793 58.8998H111.642L118.306 44.1395H120.386L127.086 58.8998H124.864L123.242 55.2274ZM122.502 53.5324L119.329 46.2935L116.155 53.5324H122.502Z" fill="#1A1A1A"/>
<path d="M129.272 44.1395H135.477C137.029 44.1395 138.404 44.4573 139.638 45.0576C140.837 45.6932 141.789 46.5407 142.459 47.6707C143.129 48.8007 143.446 50.0719 143.446 51.5197C143.446 52.9674 143.129 54.2387 142.459 55.3686C141.789 56.4986 140.872 57.3461 139.638 57.9817C138.439 58.6173 137.064 58.8998 135.477 58.8998H129.272V44.1395ZM135.336 57.0636C136.535 57.0636 137.593 56.8164 138.474 56.3574C139.391 55.8983 140.061 55.2274 140.555 54.4152C141.048 53.5677 141.295 52.6143 141.295 51.5197C141.295 50.425 141.048 49.4716 140.555 48.6241C140.061 47.7766 139.356 47.141 138.474 46.682C137.558 46.2229 136.535 45.9757 135.336 45.9757H131.352V57.0636H135.336Z" fill="#1A1A1A"/>
<path d="M157.337 57.0636V58.8998H146.654V44.1395H157.055V45.9757H148.769V50.4956H156.138V52.2965H148.769V57.0636H157.337Z" fill="#1A1A1A"/>
<path d="M174.367 58.8998L174.332 48.1651L169.008 57.1342H168.056L162.732 48.2357V58.8998H160.722V44.1395H162.45L168.585 54.4858L174.649 44.1395H176.377L176.412 58.8998H174.367Z" fill="#1A1A1A"/>
<path d="M186.461 53.8149V58.8998H184.381V53.7443L178.528 44.1395H180.784L185.509 51.9081L190.234 44.1395H192.314L186.461 53.8149Z" fill="#1A1A1A"/>
<path d="M46.7528 0H25.2098C11.2827 0 0 11.2997 0 25.2478V46.8233C0 55.7924 4.65412 63.6669 11.7058 68.1162V16.8437L20.591 11.6882V17.1968C24.7867 13.7715 30.146 11.7235 35.9637 11.7235C41.3935 11.7235 46.4002 13.5244 50.4549 16.5259L44.0731 22.9173C41.7108 21.4695 38.9606 20.622 35.9637 20.622C27.4664 20.622 20.5557 27.5431 20.5557 36.0532C20.5557 44.5633 27.4664 51.4844 35.9637 51.4844C38.9254 51.4844 41.7108 50.6369 44.0731 49.1891L50.4549 55.5806C46.4002 58.6174 41.3935 60.3829 35.9637 60.3829C30.146 60.3829 24.7515 58.2996 20.5557 54.8743V71.6827C22.0718 71.9652 23.5879 72.1064 25.1746 72.1064H46.7175C60.6446 72.1064 71.9273 60.8067 71.9273 46.8586V25.2478C71.9626 11.2997 60.6446 0 46.7528 0ZM55.4616 50.531L49.0798 44.1396C50.5607 41.7737 51.3716 39.0194 51.3716 36.0179C51.3716 33.0517 50.5254 30.2621 49.0798 27.8962L55.4616 21.5401C58.4586 25.601 60.2568 30.6152 60.2568 36.0532C60.2568 41.4559 58.4586 46.4701 55.4616 50.531Z" fill="url(#paint0_linear_2_539)"/>
<path d="M60.2565 36.0177C60.2565 41.4557 58.4583 46.47 55.4614 50.5308L49.0796 44.1394C50.5604 41.7735 51.3714 39.0192 51.3714 36.0177C51.3714 33.0515 50.5252 30.2619 49.0796 27.896L55.4614 21.5399C58.4583 25.5654 60.2565 30.5797 60.2565 36.0177Z" fill="white"/>
<path d="M44.0732 49.1537L50.455 55.5451C46.4003 58.5819 41.3936 60.3475 35.9638 60.3475C30.1461 60.3475 24.7516 58.2641 20.5558 54.8389V71.6473C17.3473 71.047 14.3503 69.8464 11.6707 68.1514V16.8436L20.5558 11.688V17.1967C24.7868 13.7714 30.1461 11.7234 35.9638 11.7234C41.3936 11.7234 46.4003 13.5243 50.455 16.5257L44.0732 22.9172C41.7109 21.4694 38.9607 20.6219 35.9638 20.6219C27.4665 20.6219 20.5558 27.543 20.5558 36.0531C20.5558 44.5632 27.4665 51.4843 35.9638 51.4843C38.9255 51.449 41.7109 50.6015 44.0732 49.1537Z" fill="white"/>
<defs>
<linearGradient id="paint0_linear_2_539" x1="7.14478" y1="64.8976" x2="63.8539" y2="8.27384" gradientUnits="userSpaceOnUse">
<stop stop-color="#146AB4"/>
<stop offset="1" stop-color="#00D4FE"/>
</linearGradient>
</defs>
</svg>
