<svg width="167" height="72" viewBox="0 0 167 72" fill="none" xmlns="http://www.w3.org/2000/svg">
<path d="M63.6123 36.7408C62.2633 35.3918 61.5889 33.4749 61.5889 30.9546V21.3701H65.5291V30.8126C65.5291 33.8654 66.8071 35.3918 69.3274 35.3918C70.5699 35.3918 71.4928 35.0369 72.1673 34.2914C72.8062 33.5459 73.1612 32.3745 73.1612 30.8126V21.3701H77.066V30.9546C77.066 33.4749 76.3915 35.3918 75.0426 36.7408C73.6937 38.0897 71.7768 38.7641 69.3274 38.7641C66.8781 38.7641 64.9612 38.0897 63.6123 36.7408Z" fill="black"/>
<path d="M91.8331 38.48L88.5318 33.7233H88.3543H84.911V38.48H80.9707V21.4055H88.3543C89.8807 21.4055 91.1941 21.6539 92.2946 22.1509C93.395 22.6479 94.2825 23.3579 94.8859 24.3163C95.4894 25.2392 95.7734 26.3397 95.7734 27.6176C95.7734 28.8955 95.4539 29.996 94.8504 30.9189C94.247 31.8419 93.3595 32.5518 92.2591 33.0488L96.0929 38.551H91.8331V38.48ZM90.8392 25.3812C90.2357 24.8843 89.3127 24.6003 88.1413 24.6003H84.911V30.564H88.1413C89.3127 30.564 90.2357 30.3155 90.8392 29.783C91.4426 29.2505 91.7621 28.5406 91.7621 27.5821C91.7621 26.6237 91.4426 25.8782 90.8392 25.3812Z" fill="black"/>
<path d="M110.434 29.641H114.055V36.5631C113.132 37.2731 112.067 37.8055 110.825 38.1605C109.618 38.551 108.375 38.7285 107.133 38.7285C105.358 38.7285 103.761 38.338 102.341 37.5926C100.921 36.8471 99.8203 35.7822 99.0038 34.4332C98.1874 33.0843 97.7969 31.5579 97.7969 29.8895C97.7969 28.1856 98.1874 26.6947 99.0038 25.3457C99.8203 23.9968 100.921 22.9674 102.376 22.1864C103.796 21.441 105.429 21.0505 107.204 21.0505C108.695 21.0505 110.044 21.299 111.286 21.7959C112.493 22.2929 113.522 23.0384 114.374 23.9968L111.819 26.3397C110.612 25.0618 109.121 24.4228 107.417 24.4228C106.316 24.4228 105.358 24.6358 104.506 25.0973C103.654 25.5587 103.015 26.1977 102.518 27.0141C102.057 27.8306 101.808 28.789 101.808 29.854C101.808 30.9189 102.057 31.8419 102.518 32.6938C102.98 33.5103 103.654 34.1847 104.471 34.6462C105.322 35.1077 106.281 35.3562 107.346 35.3562C108.482 35.3562 109.511 35.1077 110.434 34.6107V29.641Z" fill="black"/>
<path d="M130.952 35.2853V38.4447H117.711V21.3701H130.632V24.5294H121.651V28.2567H129.603V31.345H121.651V35.2853H130.952Z" fill="black"/>
<path d="M149.766 21.3701V38.4447H146.536L138.016 28.0792V38.4447H134.112V21.3701H137.377L145.861 31.7355V21.3701H149.766Z" fill="black"/>
<path d="M157.363 24.6004H151.896V21.3701H166.805V24.6004H161.338V38.4802H157.398V24.6004H157.363Z" fill="black"/>
<path d="M65.5291 49.3426V53.8508H73.4452V57.0102H65.5291V63.2223H61.5889V46.1478H74.5102V49.3071H65.5291V49.3426Z" fill="black"/>
<path d="M79.0539 61.5184C77.705 60.1695 77.0305 58.2526 77.0305 55.7322V46.1478H80.9708V55.5902C80.9708 58.6431 82.2487 60.1695 84.7691 60.1695C86.0115 60.1695 86.9345 59.8145 87.6089 59.069C88.2479 58.3236 88.6029 57.1522 88.6029 55.5902V46.1478H92.5077V55.7322C92.5077 58.2526 91.8332 60.1695 90.4843 61.5184C89.1353 62.8673 87.2185 63.5418 84.7691 63.5418C82.3197 63.5773 80.4028 62.9028 79.0539 61.5184Z" fill="black"/>
<path d="M109.653 60.0984V63.2577H96.4124V46.1832H109.334V49.3425H100.353V53.0698H108.304V56.1581H100.353V60.0984H109.653Z" fill="black"/>
<path d="M112.777 46.1832H116.717V60.0629H125.272V63.2932H112.777V46.1832Z" fill="black"/>
<path d="M45.8989 29.4279L32.9067 48.5968C30.2088 52.5371 24.8131 53.602 20.8728 50.9042C18.9559 49.5907 17.678 47.6383 17.2165 45.3665C16.7906 43.0946 17.252 40.7872 18.5655 38.8703L35.3205 13.9152L45.8989 29.4279ZM17.607 55.4479C17.536 55.4124 17.5005 55.3769 17.465 55.3414C14.4832 53.2115 12.4598 50.0522 11.7498 46.4314C11.0399 42.7041 11.8208 38.9058 13.9507 35.782L31.9127 9.01649L25.8071 0L4.65024 30.9543L4.50825 31.1673C1.66841 35.3205 0 40.3257 0 45.7214C0 47.3898 0.177491 49.0228 0.461475 50.6202C0.532471 50.9752 0.603466 51.3301 0.70996 51.7206C0.745458 51.8981 0.780957 52.0401 0.816455 52.1821C0.851953 52.3951 0.922949 52.5726 0.993945 52.7856C1.02944 52.9275 1.06494 53.0695 1.13594 53.2115C1.34892 53.886 1.56191 54.5604 1.8459 55.1994C1.91689 55.3414 1.95239 55.4834 2.02339 55.6609C2.20088 56.1224 2.41386 56.5483 2.62685 56.9743C2.69785 57.1163 2.76884 57.2583 2.83984 57.4003C7.0996 65.7778 15.7966 71.5285 25.8781 71.5285C30.0313 71.5285 33.9361 70.5345 37.4149 68.7952L18.033 55.6609L17.607 55.4479ZM51.1526 40.8582C51.1171 40.7162 51.0816 40.6097 51.0816 40.4677C51.0461 40.2192 50.9751 40.0063 50.9396 39.7933C50.9041 39.6513 50.8686 39.4738 50.8331 39.3318C50.5137 38.0894 50.1232 36.9179 49.6262 35.7465C49.5552 35.569 49.4487 35.3915 49.3777 35.1785C49.3067 35.001 49.2357 34.8236 49.1292 34.6816L37.5214 51.7206C35.6755 54.4185 33.0841 56.2999 30.2088 57.2228L42.3846 65.4938C48.0288 60.7726 51.6141 53.673 51.6141 45.7214C51.6141 44.053 51.4366 42.4201 51.1526 40.8582Z" fill="url(#paint0_linear_2_524)"/>
<defs>
<linearGradient id="paint0_linear_2_524" x1="25.8005" y1="71.5353" x2="25.8005" y2="-0.0141289" gradientUnits="userSpaceOnUse">
<stop stop-color="#F9371E"/>
<stop offset="0.0931371" stop-color="#FA4520"/>
<stop offset="0.3544" stop-color="#FC6923"/>
<stop offset="0.6002" stop-color="#FE8226"/>
<stop offset="0.8224" stop-color="#FF9227"/>
<stop offset="1" stop-color="#FF9728"/>
</linearGradient>
</defs>
</svg>
