<svg width="50" height="50" viewBox="0 0 50 50" fill="none" xmlns="http://www.w3.org/2000/svg">
<path d="M45.0031 0H4.99687C3.67339 0.00575613 2.40576 0.534059 1.46991 1.46991C0.534059 2.40576 0.00575613 3.67339 0 4.99687V45.0031C0.00575613 46.3266 0.534059 47.5942 1.46991 48.5301C2.40576 49.4659 3.67339 49.9942 4.99687 50H45.0031C46.3266 49.9942 47.5942 49.4659 48.5301 48.5301C49.4659 47.5942 49.9942 46.3266 50 45.0031V4.99687C49.9942 3.67339 49.4659 2.40576 48.5301 1.46991C47.5942 0.534059 46.3266 0.00575613 45.0031 0V0ZM14.6812 30.1344C15.206 30.3739 15.7728 30.5077 16.3493 30.5282C16.9258 30.5486 17.5006 30.4552 18.041 30.2533C18.5814 30.0515 19.0767 29.7452 19.4986 29.3518C19.9205 28.9585 20.2608 28.4858 20.5 27.9609H23.9594C21.8031 36.7906 8.80625 35.2281 8.80625 26.1375C8.80625 17.0391 21.8031 15.4766 23.9594 24.3141H20.5C19.2297 21.5234 15.5609 20.8547 13.3953 23.0281C11.2219 25.1922 11.8891 28.8625 14.6812 30.1328V30.1344ZM38.3141 31.8922C37.6594 32.4587 36.9099 32.9051 36.1 33.2109C34.9468 33.6569 33.7027 33.8174 32.4741 33.6786C31.2454 33.5399 30.0685 33.106 29.0437 32.4141V33.2109H25.8938V11.1891H29.0188V19.75C30.1346 18.9955 31.4274 18.5438 32.7703 18.4391H33.3313C40.4438 18.4234 43.7156 27.2766 38.3125 31.8906L38.3141 31.8922ZM37.85 26.1313C37.861 26.7137 37.7558 27.2924 37.5405 27.8337C37.3252 28.375 37.0042 28.8679 36.5962 29.2837C36.1882 29.6995 35.7014 30.0298 35.1643 30.2552C34.6272 30.4807 34.0505 30.5968 33.468 30.5968C32.8854 30.5968 32.3088 30.4807 31.7716 30.2552C31.2345 30.0298 30.7477 29.6995 30.3397 29.2837C29.9317 28.8679 29.6107 28.375 29.3954 27.8337C29.1802 27.2924 29.0749 26.7137 29.0859 26.1313C29.2078 20.4188 37.7203 20.4188 37.85 26.1313Z" fill="white"/>
</svg>
