<svg width="239" height="72" viewBox="0 0 239 72" fill="none" xmlns="http://www.w3.org/2000/svg">
<path d="M94.7391 23.0753H91.2505V3.82489H94.7391V23.0753Z" fill="#272727"/>
<path d="M118.067 21.6042C118.067 21.8564 118.025 22.0666 117.941 22.3187C117.857 22.5289 117.731 22.7391 117.562 22.8652C117.394 23.0333 117.226 23.1594 117.016 23.2434C116.806 23.3275 116.554 23.3695 116.343 23.3695C116.133 23.3695 115.923 23.3275 115.713 23.2434C115.503 23.1594 115.293 23.0333 115.125 22.8652L102.389 9.54116V23.1173H98.9004V5.29598C98.9004 4.9177 98.9845 4.62347 99.1946 4.32925C99.4048 4.03503 99.657 3.82488 99.9512 3.69878C100.287 3.57269 100.624 3.53066 100.96 3.61472C101.296 3.69878 101.59 3.82488 101.843 4.1191L114.578 17.4431V3.82488H118.067V21.6042Z" fill="#272727"/>
<path d="M141.394 3.82489L132.273 22.4028C132.147 22.697 131.937 22.9072 131.643 23.0753C131.349 23.2435 131.054 23.3275 130.718 23.3275C130.382 23.3275 130.088 23.2435 129.793 23.0753C129.499 22.9072 129.289 22.655 129.163 22.4028L120 3.82489H123.909L130.676 17.6953L137.485 3.82489H141.394Z" fill="#272727"/>
<path d="M160.729 23.0753H148.119C147.657 23.0753 147.111 22.9912 146.522 22.8231C145.934 22.655 145.429 22.3608 144.925 21.9825C144.421 21.6042 144.042 21.0998 143.706 20.4693C143.37 19.8389 143.202 19.0823 143.202 18.1996V5.59017C143.202 5.33799 143.244 5.12783 143.328 4.91767C143.412 4.70751 143.538 4.49736 143.706 4.37126C143.874 4.20313 144.042 4.07704 144.252 3.99298C144.463 3.90891 144.715 3.86688 144.967 3.86688H160.687V7.3555H146.69V18.1996C146.69 18.662 146.816 18.9982 147.069 19.2504C147.321 19.5026 147.657 19.6287 148.119 19.6287H160.687V23.0753H160.729ZM159.174 15.2154H148.161V11.6847H159.174V15.2154Z" fill="#272727"/>
<path d="M182.543 17.4011C182.543 18.0736 182.459 18.704 182.291 19.2505C182.123 19.7969 181.87 20.3012 181.618 20.7216C181.324 21.1419 180.988 21.5202 180.609 21.8144C180.231 22.1086 179.811 22.3608 179.433 22.5289C179.012 22.697 178.592 22.8652 178.172 22.9492C177.751 23.0333 177.331 23.0753 176.953 23.0753H163.503V19.5867H176.953C177.625 19.5867 178.13 19.3766 178.508 18.9983C178.886 18.62 179.054 18.0736 179.054 17.4011C179.054 17.0648 179.012 16.7706 178.886 16.5184C178.802 16.2662 178.634 16.014 178.466 15.8039C178.298 15.5937 178.046 15.4676 177.793 15.3415C177.541 15.2154 177.247 15.1734 176.911 15.1734H168.883C168.336 15.1734 167.706 15.0893 167.075 14.8792C166.403 14.669 165.814 14.3328 165.268 13.9125C164.722 13.4501 164.259 12.8617 163.881 12.1471C163.503 11.4326 163.334 10.5499 163.334 9.49915C163.334 8.44836 163.503 7.5657 163.881 6.85116C164.259 6.13662 164.722 5.54818 165.268 5.08584C165.814 4.62349 166.445 4.28724 167.075 4.11911C167.748 3.90895 168.336 3.82489 168.883 3.82489H180.778V7.31351H168.883C168.21 7.31351 167.706 7.52366 167.327 7.90195C166.949 8.32226 166.781 8.82664 166.781 9.49915C166.781 10.1717 166.949 10.7181 167.327 11.0963C167.706 11.4746 168.21 11.6848 168.883 11.6848H176.953H176.995C177.373 11.6848 177.751 11.7268 178.172 11.8529C178.592 11.937 179.012 12.1051 179.433 12.2732C179.853 12.4834 180.231 12.7356 180.609 13.0298C180.988 13.324 181.324 13.7023 181.618 14.1226C181.912 14.5429 182.123 15.0473 182.291 15.5517C182.459 16.0981 182.543 16.7286 182.543 17.4011Z" fill="#272727"/>
<path d="M202.634 7.31351H194.942V23.0753H191.453V7.31351H183.762V3.82489H202.634V7.31351Z" fill="#272727"/>
<path d="M110.123 33.331H102.431V49.0928H98.9423V33.331H91.2505V29.8423H110.123V33.331Z" fill="#272727"/>
<path d="M132.652 41.317C132.652 42.4939 132.442 43.5867 132.063 44.5534C131.643 45.5201 131.097 46.4028 130.382 47.1173C129.668 47.8319 128.827 48.3783 127.818 48.7986C126.809 49.2189 125.759 49.387 124.624 49.387H119.916C118.781 49.387 117.689 49.1769 116.722 48.7986C115.755 48.4203 114.872 47.8319 114.158 47.1173C113.443 46.4028 112.897 45.5622 112.477 44.5534C112.056 43.5867 111.846 42.4939 111.846 41.317V37.6182C111.846 36.4413 112.056 35.3905 112.477 34.3818C112.897 33.373 113.443 32.5324 114.158 31.8179C114.872 31.1033 115.713 30.5569 116.722 30.1366C117.689 29.7163 118.781 29.5482 119.916 29.5482H124.624C125.759 29.5482 126.851 29.7583 127.818 30.1366C128.785 30.5569 129.626 31.1033 130.382 31.8179C131.097 32.5324 131.643 33.373 132.063 34.3818C132.484 35.3905 132.652 36.4413 132.652 37.6182V41.317ZM129.163 37.6182C129.163 36.9457 129.037 36.3152 128.827 35.7268C128.617 35.1804 128.281 34.676 127.902 34.2977C127.524 33.9194 127.02 33.5832 126.473 33.373C125.927 33.1629 125.296 33.0368 124.624 33.0368H119.916C119.244 33.0368 118.613 33.1629 118.067 33.373C117.52 33.5832 117.016 33.9194 116.638 34.2977C116.217 34.676 115.923 35.1804 115.713 35.7268C115.503 36.2732 115.377 36.9037 115.377 37.6182V41.317C115.377 41.9895 115.503 42.62 115.713 43.2084C115.923 43.7548 116.259 44.2592 116.638 44.6375C117.058 45.0158 117.52 45.352 118.067 45.5622C118.613 45.7723 119.244 45.8984 119.916 45.8984H124.624C125.296 45.8984 125.927 45.7723 126.473 45.5622C127.02 45.352 127.524 45.0158 127.902 44.6375C128.323 44.2592 128.617 43.7548 128.827 43.2084C129.037 42.662 129.163 42.0315 129.163 41.317V37.6182Z" fill="#272727"/>
<path d="M164.007 47.3275C164.007 47.5796 163.965 47.7898 163.881 48.042C163.797 48.2522 163.671 48.4623 163.502 48.5884C163.334 48.7565 163.166 48.8826 162.956 48.9667C162.746 49.0508 162.494 49.0928 162.242 49.0928H149.632C149.296 49.0928 148.96 49.0508 148.581 48.9667C148.203 48.8826 147.825 48.7565 147.488 48.6304C147.11 48.4623 146.774 48.2522 146.438 48C146.101 47.7478 145.807 47.4536 145.555 47.0753C145.303 46.697 145.093 46.2767 144.925 45.8143C144.756 45.352 144.714 44.8056 144.714 44.2171V34.76C144.714 34.4238 144.756 34.0875 144.84 33.7092C144.925 33.331 145.051 32.9527 145.177 32.6164C145.345 32.2381 145.555 31.9019 145.807 31.5656C146.059 31.2294 146.396 30.9352 146.732 30.683C147.11 30.4308 147.53 30.2206 147.993 30.0525C148.455 29.8844 149.002 29.8423 149.59 29.8423H163.797V33.331H149.59C149.128 33.331 148.791 33.4571 148.539 33.7092C148.287 33.9614 148.161 34.2977 148.161 34.8021V44.2171C148.161 44.6795 148.287 45.0157 148.539 45.2679C148.791 45.5201 149.128 45.6462 149.59 45.6462H160.434V41.2329H151.145V37.7022H162.242C162.494 37.7022 162.704 37.7443 162.956 37.8283C163.166 37.9124 163.376 38.0385 163.502 38.2066C163.671 38.3747 163.797 38.5429 163.881 38.753C163.965 38.9632 164.007 39.1733 164.007 39.4255V47.3275Z" fill="#272727"/>
<path d="M186.914 36.3152C186.914 37.1138 186.83 37.8284 186.62 38.4588C186.41 39.0893 186.157 39.6357 185.821 40.0981C185.485 40.5604 185.107 40.9807 184.644 41.317C184.224 41.6532 183.762 41.9474 183.257 42.1576C182.795 42.3678 182.291 42.5359 181.828 42.62C181.324 42.704 180.861 42.7881 180.441 42.7881L187.713 49.0928H182.333L175.061 42.7881H172.539V39.2995H180.441C180.861 39.2574 181.282 39.1734 181.66 39.0052C182.038 38.8371 182.333 38.669 182.585 38.4168C182.837 38.1646 183.047 37.8704 183.215 37.4921C183.341 37.1559 183.425 36.7355 183.425 36.2732V34.0876C183.425 33.8774 183.383 33.7513 183.341 33.6252C183.299 33.5411 183.215 33.4571 183.173 33.415C183.089 33.373 183.005 33.331 182.921 33.331C182.837 33.331 182.753 33.331 182.669 33.331H171.152V49.0928H167.664V31.6077C167.664 31.3555 167.706 31.1453 167.79 30.9352C167.874 30.725 168 30.5149 168.168 30.3888C168.336 30.2207 168.504 30.0946 168.714 30.0105C168.925 29.9264 169.177 29.8844 169.429 29.8844H182.669C183.467 29.8844 184.098 30.0105 184.644 30.3047C185.191 30.5989 185.611 30.9352 185.947 31.3555C186.284 31.7758 186.536 32.2382 186.662 32.7425C186.83 33.2469 186.872 33.7093 186.872 34.1296V36.3152H186.914Z" fill="#272727"/>
<path d="M210.62 41.317C210.62 42.4939 210.41 43.5867 210.032 44.5534C209.611 45.5201 209.065 46.4028 208.35 47.1173C207.636 47.8319 206.795 48.3783 205.786 48.7986C204.778 49.2189 203.727 49.387 202.592 49.387H197.884C196.75 49.387 195.657 49.1769 194.69 48.7986C193.723 48.4203 192.841 47.8319 192.126 47.1173C191.412 46.4028 190.865 45.5622 190.445 44.5534C190.025 43.5867 189.814 42.4939 189.814 41.317V37.6182C189.814 36.4413 190.025 35.3905 190.445 34.3818C190.865 33.373 191.412 32.5324 192.126 31.8179C192.841 31.1033 193.681 30.5569 194.69 30.1366C195.657 29.7163 196.75 29.5482 197.884 29.5482H202.592C203.727 29.5482 204.82 29.7583 205.786 30.1366C206.753 30.5569 207.594 31.1033 208.35 31.8179C209.065 32.5324 209.611 33.373 210.032 34.3818C210.452 35.3905 210.62 36.4413 210.62 37.6182V41.317ZM207.131 37.6182C207.131 36.9457 207.005 36.3152 206.795 35.7268C206.585 35.1804 206.249 34.676 205.87 34.2977C205.492 33.9194 204.988 33.5832 204.441 33.373C203.895 33.1629 203.265 33.0368 202.592 33.0368H197.884C197.212 33.0368 196.582 33.1629 196.035 33.373C195.489 33.5832 194.984 33.9194 194.606 34.2977C194.186 34.676 193.892 35.1804 193.681 35.7268C193.471 36.2732 193.345 36.9037 193.345 37.6182V41.317C193.345 41.9895 193.471 42.62 193.681 43.2084C193.892 43.7548 194.228 44.2592 194.606 44.6375C195.026 45.0158 195.489 45.352 196.035 45.5622C196.582 45.7723 197.212 45.8984 197.884 45.8984H202.592C203.265 45.8984 203.895 45.7723 204.441 45.5622C204.988 45.352 205.492 45.0158 205.87 44.6375C206.291 44.2592 206.585 43.7548 206.795 43.2084C207.005 42.662 207.131 42.0315 207.131 41.317V37.6182Z" fill="#272727"/>
<path d="M238.487 29.8423L235.251 47.8739C235.166 48.2522 234.998 48.5464 234.788 48.7986C234.536 49.0508 234.242 49.2189 233.863 49.3029C233.485 49.345 233.149 49.345 232.813 49.1768C232.476 49.0508 232.224 48.7986 232.056 48.5043L225.667 37.9965L219.279 48.5043C219.11 48.7565 218.9 48.9667 218.648 49.0928C218.396 49.2189 218.102 49.3029 217.807 49.3029C217.387 49.3029 217.009 49.1768 216.673 48.8826C216.336 48.6304 216.168 48.2522 216.084 47.8318L212.806 29.8423H216.336L218.648 42.5359L224.154 33.7513C224.322 33.4991 224.532 33.2889 224.785 33.1628C225.037 33.0367 225.331 32.9527 225.625 32.9527C225.919 32.9527 226.214 33.0367 226.466 33.1628C226.718 33.2889 226.928 33.4991 227.096 33.7513L232.56 42.5359L234.872 29.8423H238.487Z" fill="#272727"/>
<path d="M102.851 63.5097C102.851 64.5184 102.599 65.4431 102.094 66.2417C101.59 67.0403 100.918 67.6708 100.119 68.0911C99.2783 68.5534 98.3536 68.7636 97.3449 68.7636C96.4622 68.7636 95.6216 68.5955 94.823 68.3012C94.0664 68.007 93.3519 67.5447 92.8054 66.9562C92.217 66.4098 91.7547 65.7373 91.4604 64.9808C91.1242 64.2242 90.9561 63.3836 90.9561 62.4589C90.9561 61.5762 91.1242 60.7356 91.4184 59.979C91.7126 59.2224 92.175 58.5499 92.7634 57.9615C93.3519 57.4151 94.0244 56.9527 94.7809 56.6165C95.5375 56.3223 96.3781 56.1541 97.2608 56.1541C97.8913 56.1541 98.4797 56.2382 99.0681 56.4063C99.6566 56.5744 100.203 56.8266 100.707 57.1629C101.212 57.4571 101.632 57.8354 101.926 58.2557L102.094 58.4659L100.791 59.8109L100.581 59.5587C100.161 59.0963 99.6146 58.7181 99.0261 58.4659C98.4377 58.2137 97.8492 58.0456 97.2608 58.0456C96.4622 58.0456 95.7056 58.2557 95.0331 58.634C94.4026 59.0123 93.8562 59.5167 93.4779 60.1892C93.0997 60.8196 92.8895 61.5762 92.8895 62.4168C92.8895 63.2575 93.0997 64.014 93.4779 64.6445C93.8562 65.317 94.4026 65.8214 95.0751 66.1997C95.7476 66.578 96.5042 66.7881 97.3449 66.7881C97.9753 66.7881 98.6058 66.662 99.1102 66.4098C99.6146 66.1576 100.035 65.8214 100.329 65.4011C100.623 65.0228 100.749 64.6025 100.749 64.0981H96.9245V62.1646H102.683L102.725 62.4589C102.725 62.585 102.767 62.7531 102.767 62.9632C102.809 63.1734 102.851 63.3415 102.851 63.5097ZM110.291 55.6077V68.5955H112.182V55.6077H110.291ZM128.995 63.8879C128.995 64.8126 128.784 65.6533 128.364 66.4098C127.944 67.1244 127.397 67.7128 126.641 68.1331C125.926 68.5534 125.086 68.7636 124.203 68.7636C123.278 68.7636 122.48 68.5534 121.765 68.1331C121.051 67.7128 120.462 67.1244 120.042 66.4098C119.622 65.6953 119.411 64.8547 119.411 63.8879C119.411 62.9632 119.622 62.1226 120.042 61.4081C120.462 60.6935 121.009 60.1051 121.765 59.6848C122.48 59.2645 123.32 59.0543 124.203 59.0543C125.128 59.0543 125.926 59.2645 126.641 59.6848C127.355 60.1051 127.944 60.6935 128.364 61.4081C128.784 62.1226 128.995 62.9632 128.995 63.8879ZM127.019 63.8879C127.019 63.2995 126.893 62.7531 126.641 62.3328C126.389 61.8704 126.052 61.5342 125.632 61.282C125.212 61.0298 124.707 60.9037 124.161 60.9037C123.615 60.9037 123.11 61.0298 122.69 61.282C122.27 61.5342 121.933 61.9125 121.681 62.3328C121.429 62.7951 121.303 63.2995 121.303 63.8879C121.303 64.4764 121.429 65.0228 121.681 65.4851C121.933 65.9475 122.27 66.2837 122.69 66.5359C123.11 66.7881 123.615 66.9142 124.161 66.9142C124.707 66.9142 125.212 66.7881 125.632 66.5359C126.052 66.2837 126.389 65.9054 126.641 65.4431C126.893 65.0228 127.019 64.4764 127.019 63.8879ZM145.513 63.8879C145.513 64.8126 145.303 65.6533 144.925 66.3678C144.546 67.0823 144 67.6708 143.369 68.0911C142.697 68.5114 141.94 68.7216 141.1 68.7216C140.385 68.7216 139.713 68.5534 139.124 68.2172C138.788 68.0491 138.536 67.8389 138.284 67.6287V68.5534H136.392V55.6077H138.284V60.1892C138.494 59.979 138.788 59.7688 139.082 59.6007C139.713 59.2224 140.385 59.0543 141.1 59.0543C141.94 59.0543 142.697 59.2645 143.369 59.6848C144.042 60.1051 144.588 60.6935 144.967 61.4081C145.303 62.1226 145.513 62.9632 145.513 63.8879ZM142.277 66.5359C142.697 66.2837 142.991 65.9475 143.243 65.4851C143.495 65.0228 143.58 64.4764 143.58 63.8879C143.58 63.2995 143.453 62.7951 143.243 62.3328C142.991 61.8704 142.697 61.5342 142.277 61.282C141.856 61.0298 141.394 60.9037 140.89 60.9037C140.343 60.9037 139.881 61.0298 139.502 61.282C139.082 61.5342 138.788 61.9125 138.536 62.3328C138.284 62.7951 138.199 63.2995 138.199 63.8879C138.199 64.4764 138.326 65.0228 138.536 65.4851C138.788 65.9475 139.082 66.2837 139.502 66.5359C139.923 66.7881 140.343 66.9142 140.89 66.9142C141.436 66.9142 141.898 66.7881 142.277 66.5359ZM161.443 59.2224V68.5955H159.509V67.5867C159.257 67.8389 158.963 68.0491 158.669 68.2172C158.038 68.5534 157.366 68.7636 156.609 68.7636C155.811 68.7636 155.054 68.5534 154.382 68.1331C153.709 67.7128 153.205 67.1244 152.826 66.4098C152.448 65.6953 152.238 64.8547 152.238 63.93C152.238 63.0053 152.448 62.1646 152.826 61.4501C153.205 60.7356 153.751 60.1471 154.424 59.7268C155.096 59.3065 155.853 59.0963 156.693 59.0963C157.45 59.0963 158.122 59.2645 158.711 59.6427C159.005 59.8109 159.299 60.021 159.509 60.2732L159.552 59.3065H161.443V59.2224ZM159.215 62.3328C158.963 61.8704 158.669 61.5342 158.249 61.282C157.828 61.0298 157.408 60.9037 156.861 60.9037C156.315 60.9037 155.853 61.0298 155.474 61.282C155.054 61.5342 154.76 61.8704 154.508 62.3328C154.256 62.7951 154.171 63.2995 154.171 63.8879C154.171 64.4764 154.298 65.0228 154.508 65.4851C154.76 65.9475 155.054 66.2837 155.474 66.5359C155.853 66.7881 156.357 66.9142 156.861 66.9142C157.366 66.9142 157.828 66.7881 158.249 66.5359C158.669 66.2837 158.963 65.9475 159.215 65.4851C159.467 65.0228 159.594 64.4764 159.594 63.8879C159.552 63.2995 159.467 62.7951 159.215 62.3328ZM169.429 55.6077V68.5955H171.32V55.6077H169.429ZM175.944 61.1979V63.1314H200.322V61.1979H175.944Z" fill="url(#paint0_linear_2_564)"/>
<path d="M52.5394 72C47.7898 72 43.9229 68.1331 43.9229 63.3835V38.9212C43.9229 36.6095 44.8056 34.4658 46.4448 32.8266L56.1961 23.0753C57.8774 21.394 60.6515 21.394 62.3327 23.0753C64.014 24.7566 64.014 27.5306 62.3327 29.2119L52.6235 38.9212V50.7741C52.9597 49.0928 53.7583 47.5797 54.9772 46.3608L71.1594 30.1786V4.32925C71.1594 1.93345 73.0928 0 75.4886 0C77.8844 0 79.8179 1.93345 79.8179 4.32925V30.2207C79.8179 32.5324 78.9352 34.676 77.296 36.3152L61.1138 52.4974V63.3835C61.1559 68.1331 57.289 72 52.5394 72ZM35.937 63.3835V38.9212C35.937 36.6095 35.0543 34.4658 33.4151 32.8266L23.6637 23.0753C21.9825 21.394 19.2084 21.394 17.5271 23.0753C15.8459 24.7566 15.8459 27.5306 17.5271 29.2119L27.2364 38.9212V50.7741C26.9002 49.0928 26.1016 47.5797 24.8827 46.3608L8.70053 30.2207V4.32925C8.70053 1.93345 6.76708 0 4.32925 0C1.89142 0 0 1.93345 0 4.32925V30.2207C0 32.5324 0.882662 34.676 2.52189 36.3152L18.704 52.4974V63.3835C18.704 68.1331 22.5709 72 27.3205 72C32.07 72 35.937 68.1331 35.937 63.3835ZM54.1366 15.2574C55.8179 13.5762 55.8179 10.8021 54.1366 9.12084C52.4553 7.43958 49.6813 7.43958 48 9.12084L39.9299 17.1489L31.8599 9.12084C30.1786 7.43958 27.4046 7.43958 25.7233 9.12084C24.042 10.8021 24.042 13.5762 25.7233 15.2574L39.9299 29.4641L54.1366 15.2574Z" fill="url(#paint1_linear_2_564)"/>
<defs>
<linearGradient id="paint0_linear_2_564" x1="90.9284" y1="62.182" x2="200.292" y2="62.182" gradientUnits="userSpaceOnUse">
<stop stop-color="#ECB554"/>
<stop offset="1" stop-color="#C17A32"/>
</linearGradient>
<linearGradient id="paint1_linear_2_564" x1="79.8469" y1="35.9984" x2="0" y2="35.9984" gradientUnits="userSpaceOnUse">
<stop stop-color="#C17A32"/>
<stop offset="1" stop-color="#ECB554"/>
</linearGradient>
</defs>
</svg>
