<svg width="120" height="120" viewBox="0 0 120 120" fill="none" xmlns="http://www.w3.org/2000/svg">
<rect width="120" height="120" rx="13" fill="white"/>
<path fill-rule="evenodd" clip-rule="evenodd" d="M15 60C15 35.1477 35.1477 15 60 15C84.8523 15 105 35.1477 105 60C105 84.8523 84.8523 105 60 105C35.1477 105 15 84.8523 15 60ZM71.4545 49.3636C70.8036 48.4957 69.8344 47.9218 68.7604 47.7684C67.6863 47.6149 66.5953 47.8945 65.7273 48.5455C64.8593 49.1964 64.2855 50.1656 64.132 51.2396C63.9786 52.3137 64.2581 53.4047 64.9091 54.2727L69.2045 60L64.9091 65.7273C64.2581 66.5953 63.9786 67.6863 64.132 68.7604C64.2855 69.8344 64.8593 70.8036 65.7273 71.4545C66.5953 72.1055 67.6863 72.385 68.7604 72.2316C69.8344 72.0782 70.8036 71.5043 71.4545 70.6364L74.3182 66.8195L77.1818 70.6364C77.8328 71.5043 78.8019 72.0782 79.876 72.2316C80.4078 72.3076 80.9494 72.2781 81.4698 72.1447C81.9902 72.0114 82.4793 71.7769 82.9091 71.4545C83.3389 71.1322 83.701 70.7284 83.9747 70.2661C84.2484 69.8038 84.4284 69.2922 84.5043 68.7604C84.5803 68.2285 84.5508 67.6869 84.4175 67.1665C84.2841 66.6461 84.0496 66.1571 83.7273 65.7273L79.4318 60L83.7273 54.2727C84.3783 53.4047 84.6578 52.3137 84.5043 51.2396C84.3509 50.1656 83.7771 49.1964 82.9091 48.5455C82.4793 48.2231 81.9902 47.9886 81.4698 47.8553C80.9494 47.7219 80.4078 47.6924 79.876 47.7684C78.8019 47.9218 77.8328 48.4957 77.1818 49.3636L74.3182 53.1805L71.4545 49.3636ZM43.6364 51.8182C43.6364 50.7332 43.2054 49.6927 42.4382 48.9255C41.671 48.1583 40.6304 47.7273 39.5455 47.7273C38.4605 47.7273 37.4199 48.1583 36.6527 48.9255C35.8856 49.6927 35.4545 50.7332 35.4545 51.8182V60C35.4545 62.0168 36.0273 64.9541 37.86 67.5027C39.8482 70.2682 43.1209 72.2727 47.7273 72.2727C52.3336 72.2727 55.6064 70.26 57.5945 67.5027C59.4273 64.9541 60 62.0209 60 60V51.8182C60 50.7332 59.569 49.6927 58.8018 48.9255C58.0346 48.1583 56.9941 47.7273 55.9091 47.7273C54.8241 47.7273 53.7836 48.1583 53.0164 48.9255C52.2492 49.6927 51.8182 50.7332 51.8182 51.8182V60C51.8182 60.7077 51.5727 61.8655 50.9509 62.7245C50.4845 63.375 49.6664 64.0909 47.7273 64.0909C45.7882 64.0909 44.97 63.375 44.5036 62.7245C43.9591 61.9184 43.658 60.9726 43.6364 60V51.8182Z" fill="#0046FF"/>
</svg>
