<svg width="203" height="55" viewBox="0 0 203 55" fill="none" xmlns="http://www.w3.org/2000/svg">
<path d="M39.3018 9.89955C37.2567 11.5001 35.7747 13.6637 34.9152 16.3609H12.9524C8.62505 16.3609 6.49102 18.5246 6.49102 22.8223H32.3662V29.2837H6.46138C6.46138 33.611 8.62505 35.7451 12.9228 35.7451H32.3365V42.2065H12.9524C4.32735 42.2657 0 37.9384 0 29.3133V22.852C0 14.2269 4.32735 9.89955 12.9524 9.89955H39.3018Z" fill="#0046FF"/>
<path d="M63.0429 22.852C63.0429 18.5246 60.8792 16.3906 56.5815 16.3906H50.0905C45.7631 16.3906 43.6291 18.5542 43.6291 22.852V42.2657H37.1677V22.852C37.1677 14.2269 41.4951 9.89955 50.1201 9.89955H56.5815C65.2066 9.89955 69.5339 14.2269 69.5339 22.852V42.2657H63.0725V22.852H63.0429Z" fill="#0046FF"/>
<path d="M106.642 42.2657H87.2285C78.6035 42.2657 74.2761 37.9384 74.2761 29.3133V22.852C74.2761 14.2269 78.6035 9.89955 87.2285 9.89955H106.642L100.181 16.3609H87.2285C82.9012 16.3609 80.7671 18.5246 80.7671 22.8223V29.2837C80.7671 33.611 82.9308 35.7451 87.2285 35.7451H100.181V22.852H106.642V42.2657Z" fill="#0046FF"/>
<path d="M117.905 9.89955V42.2657H111.444V9.89955H117.905Z" fill="#0046FF"/>
<path d="M186.787 26.0826L182.223 21.5182L170.634 9.92919H161.475L193.842 42.2954H203L186.787 26.0826Z" fill="#0046FF"/>
<path d="M193.812 9.89955L148.878 54.8328H158.037L182.223 30.6471L186.787 26.0826L202.97 9.89955H193.812Z" fill="#0046FF"/>
<path d="M155.073 22.852V42.0286L148.612 48.49V22.852C148.612 18.5246 146.448 16.3906 142.15 16.3906H135.689C131.362 16.3906 129.228 18.5542 129.228 22.852V42.2657H122.707V22.852C122.707 14.2269 127.034 9.89955 135.659 9.89955H142.121C150.746 9.89955 155.073 14.1973 155.073 22.852Z" fill="#0046FF"/>
<path d="M166.336 9.89955V30.736L159.845 37.227V9.89955H166.336Z" fill="#0046FF"/>
<path d="M166.306 0H159.845V6.25391H166.306V0Z" fill="#0046FF"/>
<path d="M117.905 0H111.444V6.25391H117.905V0Z" fill="#0046FF"/>
</svg>
